<?xml version="1.0" encoding="UTF-8"?>
<svg width="100" height="100" viewBox="0 0 100 100" xmlns="http://www.w3.org/2000/svg">
  <!-- Background Circle -->
  <circle cx="50" cy="50" r="48" fill="#101820" stroke="#3498db" stroke-width="2"/>
  
  <!-- Cloud Shape -->
  <path d="M70,45 C70,38.373 64.627,33 58,33 C52.973,33 48.441,35.874 46.219,40.136 C45.013,39.416 43.557,39 42,39 C37.582,39 34,42.582 34,47 C34,47.342 34.035,47.677 34.079,48.008 C31.159,49.246 29,52.027 29,55.222 C29,59.575 32.582,63 37,63 L63,63 C68.523,63 73,58.523 73,53 C73,49.367 71.956,46.166 70,45 Z" fill="#3498db" fill-opacity="0.8"/>
  
  <!-- Air Quality Indicator Lines -->
  <line x1="30" y1="70" x2="70" y2="70" stroke="#f39c12" stroke-width="3" stroke-linecap="round"/>
  <line x1="35" y1="75" x2="65" y2="75" stroke="#2ecc71" stroke-width="3" stroke-linecap="round"/>
  <line x1="40" y1="80" x2="60" y2="80" stroke="#e74c3c" stroke-width="3" stroke-linecap="round"/>
  
  <!-- Wind Symbol -->
  <path d="M25,28 C25,24.686 27.686,22 31,22 C34.314,22 37,24.686 37,28 L31,28 Z" fill="#f5f5f5" transform="rotate(45, 31, 28)"/>
  <path d="M60,28 C60,24.686 62.686,22 66,22 C69.314,22 72,24.686 72,28 L66,28 Z" fill="#f5f5f5" transform="rotate(135, 66, 28)"/>
</svg>